# xmcd CD database file
#
# Track frame offsets:
#	150
#	10395
#	23430
#	35205
#	45840
#	56635
#	72810
#	85935
#	94807
#	107387
#	119947
#	131817
#
# Disc length: 1920 seconds
#
# Revision: 2
# Processed by: cddbd v1.5.2PL0 Copyright (c) Steve Scherf et al.
# Submitted via: CDex 1.51
#
DISCID=9d077e0c
DTITLE=Connie Francis - Country and Western Golden Hits
DYEAR=1998
DGENRE=Country
TTITLE0=Singing The Blues
TTITLE1=Tennessee Waltz
TTITLE2=Young Love
TTITLE3=Your Cheatin' Heart
TTITLE4=Bye Bye Love
TTITLE5=Peace In The Valley
TTITLE6=My Special Angel
TTITLE7=Hearts Of Stone
TTITLE8=Half As Much
TTITLE9=Cold Cold Heart
TTITLE10=Let Me Go Love
TTITLE11=Anytime
EXTD=YEAR: 1998
EXTT0=
EXTT1=
EXTT2=
EXTT3=
EXTT4=
EXTT5=
EXTT6=
EXTT7=
EXTT8=
EXTT9=
EXTT10=
EXTT11=
PLAYORDER=
